<svg width="1025" height="785" viewBox="0 0 1025 785" fill="none" xmlns="http://www.w3.org/2000/svg">
<g id="undraw_electric_car_b7hl 1">
<g clip-path="url(#clip0)">
<path id="Vector" opacity="0.1" d="M174.8 115.43C169.32 122.08 167.21 131.43 164.85 140.22C145.85 211.06 99.03 268.04 45.71 308.74C23.13 325.98 -4.36001 349.1 0.579989 380.01C3.23999 396.61 14.91 408.83 23.58 422.35C41.77 450.66 47.67 489.14 39 523.03C29.14 561.59 1.57999 597.57 10.11 636.56C15.37 660.56 33.23 677.64 50.4 692.32C77.1867 715.207 104.827 736.647 133.32 756.64C152.42 770.04 172.74 783.08 195 784.78C214.6 786.28 233.8 778.83 252.41 771.48C268.67 765.05 285.34 758.36 298.47 745.48C307.04 737.07 313.87 726.22 323.39 719.34C345.75 703.18 374.47 713.42 400.11 720.34C460.61 736.58 525.36 730.65 582.93 703.6C671.24 662.1 738.55 574.95 824.93 528.19C862.07 508.08 902.47 495.6 936.86 469.7C956.235 454.953 972.885 436.936 986.06 416.46C1012.06 376.35 1026.12 325.21 1022.06 275.15C1018 225.09 995.25 176.85 959.52 148.59C921.27 118.34 872.96 112.69 829.44 94.53C784.52 75.75 744.54 43.49 700.05 23.38C664.027 7.1335 624.823 -0.840251 585.315 0.0439976C545.808 0.928246 507 10.648 471.74 28.49C423.29 52.99 374.2 110.15 320.24 114.49C281.8 117.49 204.82 79.01 174.8 115.43Z" fill="#6384FF"/>
<g id="male">
<path id="Vector_2" d="M966.12 335.07H669.22V454.84H966.12V335.07Z" fill="#6F7D95"/>
<path id="Vector_3" d="M593.73 278.98L635.9 373.45L719.41 368.39L722.78 329.59L725.31 284.04L607.23 275.6L593.73 278.98Z" fill="#4B5C7A"/>
<path id="Vector_4" d="M593.73 278.98C593.73 278.98 609.73 263.8 629.16 260.42C648.59 257.04 713.51 263.79 713.51 263.79L722.79 279.79L721.05 287.41L593.73 278.98Z" fill="#FF4D52"/>
<path id="Vector_5" d="M752.72 327.48H453.29V415.2H752.72V327.48Z" fill="#4B5C7A"/>
<path id="Vector_6" d="M649.11 282.39C649.11 282.39 654.7 303.68 638.11 307.39C621.52 311.1 632.45 297.82 632.45 297.82L648.45 282.23L649.11 282.39Z" fill="#472727"/>
<path id="Vector_7" d="M579.75 333.13C579.75 333.13 567.41 338.13 558.34 371.81C549.27 405.49 550.17 413.09 543.64 420.92C537.11 428.75 530.42 483.69 530.42 483.69L543.48 487.21L554.85 450.49L586.12 353.49L579.75 333.13Z" fill="#DDE0E4"/>
<path id="Vector_8" opacity="0.05" d="M579.75 333.13C579.75 333.13 567.41 338.13 558.34 371.81C549.27 405.49 550.17 413.09 543.64 420.92C537.11 428.75 530.42 483.69 530.42 483.69L543.48 487.21L554.85 450.49L586.12 353.49L579.75 333.13Z" fill="black"/>
<path id="Vector_9" d="M648.27 329.33C648.27 329.33 596.61 355.59 604.17 338.46C607.91 330 607.77 321.23 606.68 314.46C606.058 310.472 604.967 306.572 603.43 302.84C603.43 302.84 638.55 275.06 636.49 297.74C635.997 302.622 636.335 307.551 637.49 312.32C640.53 324.35 648.27 329.33 648.27 329.33Z" fill="#DB8B8B"/>
<path id="Vector_10" opacity="0.1" d="M637.49 312.36C634.168 315.028 630.261 316.872 626.09 317.741C621.919 318.61 617.601 318.479 613.49 317.36C611.086 316.713 608.781 315.741 606.64 314.47C606.018 310.482 604.927 306.582 603.39 302.85C603.39 302.85 638.51 275.07 636.45 297.75C635.966 302.644 636.318 307.584 637.49 312.36Z" fill="black"/>
<path id="Vector_11" d="M647.042 296.938C650.925 282.518 642.383 267.681 627.963 263.798C613.543 259.915 598.705 268.457 594.822 282.878C590.94 297.298 599.482 312.135 613.902 316.018C628.322 319.901 643.16 311.359 647.042 296.938Z" fill="#DB8B8B"/>
<path id="Vector_12" opacity="0.1" d="M607.35 276.72C606.608 277.173 605.782 277.472 604.922 277.598C604.062 277.724 603.185 277.675 602.345 277.453C601.504 277.232 600.717 276.843 600.031 276.31C599.344 275.776 598.772 275.11 598.35 274.35C597.979 273.672 597.819 272.899 597.89 272.13C598.12 270.39 599.84 269.31 600.89 267.87C602.52 265.54 602.21 262.35 603.39 259.76C604.202 258.178 605.374 256.808 606.81 255.76C609.733 253.475 613.154 251.915 616.795 251.206C620.436 250.496 624.194 250.659 627.76 251.68C630.678 252.632 633.476 253.917 636.1 255.51C643.62 259.8 651.03 265.05 655.1 272.68C655.925 274.08 656.449 275.636 656.64 277.25C656.685 278.993 656.379 280.728 655.74 282.35C654.236 286.832 652.141 291.092 649.51 295.02C648.63 293.927 647.525 293.037 646.27 292.41C645.636 292.111 644.925 292.018 644.235 292.145C643.546 292.273 642.915 292.614 642.43 293.12C641.56 294.23 641.03 296.35 639.71 295.85C638.85 295.53 638.86 294.34 638.9 293.42C639.08 289.42 636.9 285.65 633.97 282.95C631.04 280.25 627.41 278.47 623.83 276.72C621.26 275.46 617.83 272.57 615.01 272.06C611.51 271.41 609.86 275.17 607.35 276.72Z" fill="black"/>
<path id="Vector_13" d="M607.72 275.35C606.978 275.803 606.152 276.102 605.292 276.228C604.432 276.354 603.555 276.305 602.715 276.083C601.874 275.862 601.087 275.473 600.401 274.94C599.714 274.406 599.142 273.74 598.72 272.98C598.349 272.302 598.189 271.529 598.26 270.76C598.49 269.02 600.21 267.94 601.26 266.5C602.89 264.17 602.58 260.98 603.76 258.39C604.572 256.808 605.744 255.438 607.18 254.39C610.103 252.105 613.524 250.545 617.165 249.836C620.806 249.126 624.564 249.289 628.13 250.31C631.048 251.262 633.846 252.547 636.47 254.14C643.99 258.43 651.4 263.68 655.47 271.31C656.295 272.71 656.819 274.266 657.01 275.88C657.055 277.623 656.749 279.358 656.11 280.98C654.606 285.462 652.511 289.722 649.88 293.65C649 292.557 647.895 291.667 646.64 291.04C646.006 290.741 645.295 290.648 644.605 290.775C643.916 290.903 643.285 291.244 642.8 291.75C641.93 292.86 641.4 294.98 640.08 294.48C639.22 294.16 639.23 292.97 639.27 292.05C639.45 288.05 637.27 284.28 634.34 281.58C631.41 278.88 627.78 277.1 624.2 275.35C621.63 274.09 618.2 271.2 615.38 270.69C611.88 270.03 610.23 273.8 607.72 275.35Z" fill="#472727"/>
<path id="Vector_14" d="M621.88 332.91C621.88 332.91 643.27 328.72 644.2 325.29L668.66 342.56C668.66 342.56 683.38 359.05 675.85 384.29C675.85 384.29 669.72 437.18 657.8 456.81C645.88 476.44 639.03 501.87 622.7 507.81C622.7 507.81 607 497.69 601.82 497.81C601.82 497.81 628.41 459.28 629.55 444.11C630.69 428.94 642.84 405.68 640.18 390.96L604.18 502.86C604.18 502.86 546.18 493.86 540.3 474.61C540.3 474.61 545.3 467.1 544.37 459.49C543.44 451.88 566.25 394.63 566.25 394.63L577.17 334.93C577.17 334.93 598.77 319.84 607.37 323.76C607.33 323.7 605.77 331.15 621.88 332.91Z" fill="#DDE0E4"/>
<g id="Group" opacity="0.1">
<path id="Vector_15" opacity="0.1" d="M629.67 286.49C624.39 279.29 614.32 285.2 612.67 286.23L610.08 285.97C607.82 283.51 600.89 276.97 594.38 281.78L594.1 281.99L593.71 291.22L593.99 291.44C595.87 292.892 598.003 293.983 600.28 294.66C601.722 295.084 603.243 295.159 604.72 294.88C605.813 294.628 606.837 294.139 607.719 293.448C608.602 292.757 609.323 291.88 609.83 290.88L611.18 290.97L612.18 290.78C612.38 291.843 612.805 292.852 613.426 293.738C614.046 294.625 614.849 295.368 615.78 295.92C620.25 298.45 626.78 295.92 627.05 295.87L627.39 295.74L629.79 286.81L629.67 286.49ZM626.28 294.61C624.95 295.06 619.93 296.54 616.56 294.61C615.721 294.084 615.014 293.372 614.494 292.53C613.974 291.687 613.654 290.736 613.56 289.75L613.44 289.02L611.25 289.47L609.05 289.39L608.84 289.81C608.439 290.718 607.834 291.523 607.073 292.161C606.312 292.799 605.415 293.253 604.45 293.49C600.68 294.3 596.32 291.38 595.18 290.55L595.51 282.75C601.17 278.94 607.41 285.12 609.21 287.14L609.4 287.35L613.05 287.71L613.27 287.56C613.37 287.5 622.44 281.41 627.61 286.31C627.866 286.548 628.104 286.805 628.32 287.08L626.28 294.61Z" fill="black"/>
<path id="Vector_16" opacity="0.1" d="M646.05 291.13L629.05 289.72L627.65 289.45L628.28 287.09C628.064 286.815 627.826 286.558 627.57 286.32L629.63 286.52L643.54 287.88L646.05 291.13Z" fill="black"/>
</g>
<path id="Vector_17" d="M629.85 285.85C624.57 278.65 614.5 284.56 612.85 285.59L610.26 285.33C608 282.87 601.07 276.33 594.56 281.14L594.28 281.35L593.89 290.58L594.17 290.8C596.05 292.252 598.183 293.343 600.46 294.02C601.902 294.444 603.423 294.519 604.9 294.24C605.993 293.988 607.017 293.499 607.899 292.808C608.782 292.117 609.503 291.24 610.01 290.24L611.36 290.33L612.36 290.14C612.56 291.203 612.985 292.212 613.606 293.098C614.226 293.985 615.029 294.728 615.96 295.28C620.43 297.81 626.96 295.28 627.23 295.23L627.57 295.1L629.97 286.17L629.85 285.85ZM626.46 293.97C625.13 294.42 620.11 295.9 616.74 293.97C615.901 293.444 615.194 292.732 614.674 291.89C614.154 291.047 613.834 290.096 613.74 289.11L613.62 288.38L611.43 288.83L609.26 288.69L609.05 289.11C608.656 290.024 608.056 290.834 607.299 291.479C606.541 292.124 605.645 292.586 604.68 292.83C600.91 293.64 596.55 290.72 595.41 289.89L595.74 282.09C601.4 278.28 607.64 284.46 609.44 286.48L609.63 286.69L613.28 287.05L613.5 286.9C613.6 286.84 622.67 280.75 627.84 285.65C628.096 285.888 628.334 286.145 628.55 286.42L626.46 293.97Z" fill="#472727"/>
<path id="Vector_18" d="M646.21 290.49L629.27 289.08L627.87 288.81L628.5 286.45C628.284 286.175 628.046 285.918 627.79 285.68L629.85 285.88L643.76 287.24L646.21 290.49Z" fill="#472727"/>
<path id="Vector_19" d="M530.04 395.8H233.14V515.57H530.04V395.8Z" fill="#6F7D95"/>
</g>
<g id="front-wheel">
<path id="Vector_20" d="M369.02 594.01C414.777 594.01 451.87 553.416 451.87 503.34C451.87 453.264 414.777 412.67 369.02 412.67C323.263 412.67 286.17 453.264 286.17 503.34C286.17 553.416 323.263 594.01 369.02 594.01Z" fill="#4B5C7A"/>
<path id="Vector_21" opacity="0.05" d="M369.02 594.01C414.777 594.01 451.87 553.416 451.87 503.34C451.87 453.264 414.777 412.67 369.02 412.67C323.263 412.67 286.17 453.264 286.17 503.34C286.17 553.416 323.263 594.01 369.02 594.01Z" fill="black"/>
<path id="Vector_22" d="M387.43 594.01C433.187 594.01 470.28 553.416 470.28 503.34C470.28 453.264 433.187 412.67 387.43 412.67C341.673 412.67 304.58 453.264 304.58 503.34C304.58 553.416 341.673 594.01 387.43 594.01Z" fill="#4B5C7A"/>
<path id="Vector_23" opacity="0.05" d="M385.59 540.62C405.925 540.62 422.41 524.135 422.41 503.8C422.41 483.465 405.925 466.98 385.59 466.98C365.255 466.98 348.77 483.465 348.77 503.8C348.77 524.135 365.255 540.62 385.59 540.62Z" fill="black"/>
<path id="Vector_24" d="M385.59 514.85C391.693 514.85 396.64 509.903 396.64 503.8C396.64 497.697 391.693 492.75 385.59 492.75C379.487 492.75 374.54 497.697 374.54 503.8C374.54 509.903 379.487 514.85 385.59 514.85Z" stroke="#6F7D95" stroke-width="2" stroke-miterlimit="10"/>
<path id="Vector_25" d="M385.59 487.23C387.114 487.23 388.35 485.994 388.35 484.47C388.35 482.946 387.114 481.71 385.59 481.71C384.066 481.71 382.83 482.946 382.83 484.47C382.83 485.994 384.066 487.23 385.59 487.23Z" fill="#6F7D95"/>
<path id="Vector_26" d="M402.467 491.914C403.635 490.934 403.787 489.193 402.807 488.026C401.827 486.858 400.086 486.706 398.919 487.686C397.751 488.665 397.599 490.406 398.579 491.574C399.558 492.742 401.299 492.894 402.467 491.914Z" fill="#6F7D95"/>
<path id="Vector_27" d="M409.057 505.279C409.322 503.778 408.319 502.346 406.818 502.082C405.317 501.817 403.886 502.819 403.621 504.321C403.356 505.822 404.358 507.253 405.86 507.518C407.361 507.783 408.792 506.78 409.057 505.279Z" fill="#6F7D95"/>
<path id="Vector_28" d="M399.828 521.154C401.149 520.392 401.601 518.704 400.839 517.384C400.077 516.063 398.389 515.611 397.068 516.373C395.748 517.136 395.296 518.824 396.058 520.144C396.82 521.464 398.508 521.916 399.828 521.154Z" fill="#6F7D95"/>
<path id="Vector_29" d="M385.297 522.648C385.818 521.215 385.08 519.632 383.647 519.11C382.215 518.589 380.631 519.328 380.11 520.76C379.588 522.192 380.327 523.776 381.759 524.297C383.192 524.819 384.776 524.08 385.297 522.648Z" fill="#6F7D95"/>
<path id="Vector_30" d="M371.268 514.124C372.7 513.603 373.438 512.019 372.917 510.586C372.396 509.154 370.812 508.416 369.38 508.937C367.947 509.458 367.209 511.042 367.73 512.474C368.251 513.907 369.835 514.645 371.268 514.124Z" fill="#6F7D95"/>
<path id="Vector_31" d="M372.555 496.881C373.317 495.561 372.865 493.873 371.545 493.111C370.225 492.349 368.537 492.801 367.775 494.121C367.012 495.442 367.465 497.13 368.785 497.892C370.105 498.654 371.793 498.202 372.555 496.881Z" fill="#6F7D95"/>
</g>
<g id="back-wheel">
<path id="Vector_32" d="M895.02 503.98C929.819 503.98 958.03 473.106 958.03 435.02C958.03 396.934 929.819 366.06 895.02 366.06C860.221 366.06 832.01 396.934 832.01 435.02C832.01 473.106 860.221 503.98 895.02 503.98Z" fill="#4B5C7A"/>
<path id="Vector_33" opacity="0.05" d="M895.02 503.98C929.819 503.98 958.03 473.106 958.03 435.02C958.03 396.934 929.819 366.06 895.02 366.06C860.221 366.06 832.01 396.934 832.01 435.02C832.01 473.106 860.221 503.98 895.02 503.98Z" fill="black"/>
<path id="Vector_34" d="M909.02 503.98C943.819 503.98 972.03 473.106 972.03 435.02C972.03 396.934 943.819 366.06 909.02 366.06C874.221 366.06 846.01 396.934 846.01 435.02C846.01 473.106 874.221 503.98 909.02 503.98Z" fill="#4B5C7A"/>
<path id="Vector_35" opacity="0.05" d="M907.62 463.37C923.084 463.37 935.62 450.834 935.62 435.37C935.62 419.906 923.084 407.37 907.62 407.37C892.156 407.37 879.62 419.906 879.62 435.37C879.62 450.834 892.156 463.37 907.62 463.37Z" fill="black"/>
<path id="Vector_36" d="M907.62 443.77C912.259 443.77 916.02 440.009 916.02 435.37C916.02 430.731 912.259 426.97 907.62 426.97C902.981 426.97 899.22 430.731 899.22 435.37C899.22 440.009 902.981 443.77 907.62 443.77Z" stroke="#6F7D95" stroke-width="2" stroke-miterlimit="10"/>
<path id="Vector_37" d="M907.62 422.77C908.78 422.77 909.72 421.83 909.72 420.67C909.72 419.51 908.78 418.57 907.62 418.57C906.46 418.57 905.52 419.51 905.52 420.67C905.52 421.83 906.46 422.77 907.62 422.77Z" fill="#6F7D95"/>
<path id="Vector_38" d="M920.463 426.33C921.351 425.585 921.467 424.26 920.722 423.372C919.976 422.483 918.652 422.367 917.763 423.113C916.875 423.858 916.759 425.183 917.504 426.072C918.25 426.96 919.574 427.076 920.463 426.33Z" fill="#6F7D95"/>
<path id="Vector_39" d="M925.467 436.504C925.668 435.361 924.906 434.272 923.763 434.071C922.621 433.869 921.532 434.632 921.331 435.774C921.129 436.917 921.892 438.006 923.034 438.207C924.176 438.408 925.265 437.646 925.467 436.504Z" fill="#6F7D95"/>
<path id="Vector_40" d="M918.457 448.575C919.462 447.995 919.806 446.71 919.226 445.706C918.646 444.702 917.362 444.358 916.357 444.937C915.353 445.517 915.009 446.802 915.589 447.806C916.169 448.81 917.453 449.155 918.457 448.575Z" fill="#6F7D95"/>
<path id="Vector_41" d="M907.402 449.708C907.799 448.618 907.237 447.413 906.147 447.016C905.057 446.619 903.852 447.181 903.456 448.271C903.059 449.361 903.621 450.566 904.711 450.963C905.801 451.359 907.006 450.798 907.402 449.708Z" fill="#6F7D95"/>
<path id="Vector_42" d="M896.728 443.216C897.818 442.82 898.38 441.615 897.983 440.525C897.587 439.435 896.382 438.873 895.292 439.27C894.202 439.666 893.64 440.871 894.037 441.961C894.433 443.051 895.638 443.613 896.728 443.216Z" fill="#6F7D95"/>
<path id="Vector_43" d="M897.72 430.106C898.3 429.102 897.955 427.817 896.951 427.237C895.947 426.657 894.662 427.002 894.082 428.006C893.502 429.01 893.847 430.295 894.851 430.875C895.855 431.454 897.14 431.11 897.72 430.106Z" fill="#6F7D95"/>
</g>
<g id="car body">
<path id="Vector_44" d="M33.67 512.62L26.05 452.73H116.3L162.69 494.06L139.92 547.2C139.92 547.2 48.05 532.02 33.67 512.62Z" fill="#FF4D52"/>
<path id="Vector_45" opacity="0.05" d="M162.72 494.06L139.95 547.2C139.95 547.2 48.05 532.02 33.67 512.62L33.34 510.01L26.34 454.63L26.27 454.08L26.1 452.74H116.35L162.72 494.06Z" fill="black"/>
<path id="Vector_46" d="M536.38 268.86V288.26C536.38 288.26 489.74 326.26 478.64 362.11C476.702 367.931 475.971 374.087 476.49 380.2C480.71 419.84 355.05 348.14 355.05 348.14L360.64 345.42C389.53 331.49 521.37 268.1 536.38 268.86Z" fill="#7597CE"/>
<path id="Vector_47" d="M642.66 362.49C642.66 362.49 686.34 341.03 693.35 325.15C694.29 323.02 695.18 320.87 696.22 318.78C700.55 310.07 709.65 289.64 705.07 279.83C699.17 267.18 719.41 281.52 719.41 281.52L707.6 341.39L678.92 357.39L641.81 362.49" fill="#FF4D52"/>
<path id="Vector_48" opacity="0.05" d="M642.66 362.49C642.66 362.49 686.34 341.03 693.35 325.15C694.29 323.02 695.18 320.87 696.22 318.78C700.55 310.07 709.65 289.64 705.07 279.83C699.17 267.18 719.41 281.52 719.41 281.52L707.6 341.39L678.92 357.39L641.81 362.49" fill="black"/>
<path id="Vector_49" opacity="0.05" d="M162.72 494.06L139.95 547.2C139.95 547.2 48.05 532.02 33.67 512.62L33.34 510.01C33.71 509.76 34.1 509.5 34.51 509.25C34.51 509.25 62.34 531.18 125.61 536.25C125.61 536.25 163.61 505.88 101.99 472.15C101.99 472.15 48.39 473.83 26.31 454.64L26.07 454.44L26.24 454.09C26.3867 453.803 26.6233 453.357 26.95 452.75H116.32L162.72 494.06Z" fill="black"/>
<path id="Vector_50" opacity="0.05" d="M476.49 380.19C480.71 419.84 355.05 348.14 355.05 348.14L360.64 345.42C364.34 349.36 379.11 362.65 408.64 361.21C427.64 360.28 456.49 361.13 478.69 362.1C476.736 367.918 475.987 374.073 476.49 380.19V380.19Z" fill="black"/>
<path id="Vector_51" opacity="0.05" d="M530.05 395.8V515.57H474.89C478.53 487.71 476.43 447.1 441.05 423.82C427.854 415.195 412.532 410.382 396.775 409.912C381.017 409.443 365.436 413.335 351.75 421.16C328.56 434.4 302.63 461.32 286.15 515.57H233.15V395.8H530.05Z" fill="black"/>
<path id="Vector_52" opacity="0.05" d="M982.74 433.27C980.66 446.49 977.32 459.33 972.15 470.27C971.483 471.743 970.757 473.18 969.97 474.58C970.1 474.09 971.05 470.67 972.15 465.29C977.51 439.09 986.68 366.59 925.24 362.45C924.44 362.4 923.65 362.35 922.86 362.32C917.943 358.103 912.651 354.344 907.05 351.09H958.5C958.5 351.09 978.74 392.42 982.96 412.66C984.18 418.34 983.84 425.67 982.74 433.27Z" fill="black"/>
<path id="Vector_53" d="M971.64 473.76C972.44 470.87 1000.94 366.63 926.91 361.64C851.84 356.58 842.56 413.09 834.13 489.85C834.13 489.85 597.13 507.56 469.75 544.68C469.75 544.68 500.33 460.88 442.75 422.98C429.554 414.355 414.232 409.542 398.475 409.072C382.717 408.603 367.136 412.495 353.45 420.32C325.05 436.54 292.52 473.32 278.29 555.64H136.57C136.57 555.64 109.57 557.33 100.3 544.64C100.3 544.64 62.3 545.48 38.73 525.24C38.73 525.24 13.43 520.18 33.67 507.53C33.67 507.53 62.35 529.46 125.61 534.53C125.61 534.53 163.61 504.16 101.99 470.43C101.99 470.43 47.99 472.12 26.08 452.72C26.08 452.72 33.77 436.81 51.32 417.56C75.3241 391.155 105.91 371.599 139.95 360.89C162.887 353.799 186.794 350.351 210.8 350.67L359.67 346.03C359.67 346.03 374.05 364.59 408.59 362.9C443.13 361.21 510.65 365.43 510.65 365.43H511.32L650.24 359.14C654.229 358.577 658.175 357.742 662.05 356.64C682.19 351.17 720.39 334.58 713.5 288.25L931.96 301.75C940.194 302.128 948.373 303.284 956.39 305.2C967.61 308.08 977.87 313.34 974.98 322.84C969.08 342.24 985.1 344.77 985.1 344.77C985.1 344.77 985.44 347.36 985.86 351.86C987.86 373.08 991.79 436.88 971.64 473.76Z" fill="#FF4D52"/>
<path id="Vector_54" opacity="0.05" d="M303.58 381.04C303.58 381.04 212.48 381.88 152.58 435.04H186.32C186.32 435.04 280.79 410.58 303.56 391.18L303.58 381.04Z" fill="black"/>
<path id="Vector_55" d="M302.73 380.19C302.73 380.19 211.63 381.03 151.73 434.19H185.47C185.47 434.19 279.94 409.73 302.71 390.33L302.73 380.19Z" fill="#FFEC9F"/>
<path id="Vector_56" opacity="0.05" d="M140.79 361.74V384.41L64.05 419.84L52.17 418.41C76.1713 392.007 106.753 372.45 140.79 361.74V361.74Z" fill="black"/>
<path id="Vector_57" d="M139.94 360.9V383.57L63.19 418.99L51.31 417.56C75.3153 391.159 105.901 371.606 139.94 360.9V360.9Z" fill="#FFEC9F"/>
<path id="Vector_58" opacity="0.05" d="M248.75 463.7C248.75 463.7 207.42 489 203.2 544.7H226.82C226.82 544.7 236.1 483.97 263.09 463.7H248.75Z" fill="black"/>
<path id="Vector_59" opacity="0.05" d="M737.13 465.39L522.88 490.69C522.88 490.69 508.71 400.49 511.33 365.4L650.25 359.11C654.235 358.556 658.177 357.731 662.05 356.64V365.01L766.64 339.71C766.64 339.71 784.36 365.85 737.13 465.39Z" fill="black"/>
<path id="Vector_60" d="M713.51 263.79C713.51 263.79 759.06 257.89 779.3 296.69L714.16 294.18L713.51 263.79Z" fill="#FF4D52"/>
<path id="Vector_61" opacity="0.05" d="M776.14 310.29C774.35 315.9 775.7 322.07 786.07 326.34C794.7 329.9 804.82 325.78 807.77 316.93C809.49 311.77 808.31 305.93 799.01 301.18C789.71 296.43 779.27 300.49 776.14 310.29Z" fill="black"/>
<path id="Vector_62" d="M27.68 465.37C27.68 465.37 81.74 493.37 120.54 482.77" stroke="#FF4D52" stroke-miterlimit="10"/>
<path id="Vector_63" d="M29.59 480.49C29.59 480.49 64.52 507.43 135.12 501.17" stroke="#FF4D52" stroke-miterlimit="10"/>
<path id="Vector_64" d="M31.2 493.18C31.2 493.18 65.85 523.25 137.05 513.72" stroke="#FF4D52" stroke-miterlimit="10"/>
<path id="Vector_65" opacity="0.05" d="M776.69 292.16C776.69 292.16 748.51 316.49 722.79 327.49C722.79 327.49 761.85 334.44 776.69 292.16Z" fill="black"/>
<path id="Vector_66" opacity="0.1" d="M478.15 363.77C478.15 363.77 611.87 376.4 662.47 364.59C662.47 364.59 665.17 366.38 649.06 359.16L478.15 363.77Z" fill="black"/>
<path id="Vector_67" opacity="0.05" d="M985.87 351.86C977.54 346.39 964.33 335.04 966.13 322.41C967.03 316.08 962.55 310.16 956.4 305.19C967.62 308.07 977.88 313.33 974.99 322.83C969.09 342.23 985.11 344.76 985.11 344.76C985.11 344.76 985.44 347.36 985.87 351.86Z" fill="black"/>
<path id="Vector_68" opacity="0.02" d="M286.52 410.31L275.27 446.02L275 446.72C273.49 447.06 241.61 454.39 234.73 456.64H234.04L251.85 409.49L252.36 408.13L258.15 408.5L286.52 410.31Z" fill="black"/>
</g>
</g>
</g>
<defs>
<clipPath id="clip0">
<rect width="1024.09" height="784.98" fill="white"/>
</clipPath>
</defs>
</svg>
